<mxfile host="app.diagrams.net" modified="2020-11-05T19:54:26.362Z" agent="5.0 (Windows NT 10.0; Win64; x64) AppleWebKit/537.36 (KHTML, like Gecko) Chrome/86.0.4240.111 Safari/537.36 Edg/86.0.622.61" etag="9tU7YEe4_v8AzvDVvQWp" version="13.9.2" type="github">
  <diagram name="Page-1" id="2c0d36ab-eaac-3732-788b-9136903baeff">
    <mxGraphModel dx="1955" dy="979" grid="1" gridSize="10" guides="1" tooltips="1" connect="1" arrows="1" fold="1" page="1" pageScale="1.5" pageWidth="1169" pageHeight="827" background="#ffffff" math="0" shadow="0">
      <root>
        <mxCell id="0" />
        <mxCell id="1" parent="0" />
        <mxCell id="EucxsVxJViZzN3xbU8ij-126" style="edgeStyle=orthogonalEdgeStyle;rounded=0;orthogonalLoop=1;jettySize=auto;html=1;" parent="1" source="2" target="EucxsVxJViZzN3xbU8ij-123" edge="1">
          <mxGeometry relative="1" as="geometry">
            <Array as="points">
              <mxPoint x="595" y="300" />
              <mxPoint x="893" y="300" />
            </Array>
          </mxGeometry>
        </mxCell>
        <mxCell id="EucxsVxJViZzN3xbU8ij-128" style="edgeStyle=orthogonalEdgeStyle;rounded=0;orthogonalLoop=1;jettySize=auto;html=1;" parent="1" source="2" target="10" edge="1">
          <mxGeometry relative="1" as="geometry" />
        </mxCell>
        <mxCell id="EucxsVxJViZzN3xbU8ij-129" style="edgeStyle=orthogonalEdgeStyle;rounded=0;orthogonalLoop=1;jettySize=auto;html=1;" parent="1" source="2" target="EucxsVxJViZzN3xbU8ij-125" edge="1">
          <mxGeometry relative="1" as="geometry">
            <Array as="points">
              <mxPoint x="595" y="300" />
              <mxPoint x="1120" y="300" />
              <mxPoint x="1120" y="820" />
              <mxPoint x="887" y="820" />
            </Array>
          </mxGeometry>
        </mxCell>
        <mxCell id="pe4bhH4FOuRFfVW5x6u8-62" style="edgeStyle=orthogonalEdgeStyle;rounded=0;orthogonalLoop=1;jettySize=auto;html=1;entryX=0.5;entryY=0;entryDx=0;entryDy=0;" edge="1" parent="1" source="2" target="4">
          <mxGeometry relative="1" as="geometry">
            <Array as="points">
              <mxPoint x="595" y="300" />
              <mxPoint x="1120" y="300" />
              <mxPoint x="1120" y="820" />
              <mxPoint x="667" y="820" />
            </Array>
          </mxGeometry>
        </mxCell>
        <mxCell id="pe4bhH4FOuRFfVW5x6u8-63" style="edgeStyle=orthogonalEdgeStyle;rounded=0;orthogonalLoop=1;jettySize=auto;html=1;entryX=1;entryY=0.5;entryDx=0;entryDy=0;" edge="1" parent="1" source="2" target="EucxsVxJViZzN3xbU8ij-124">
          <mxGeometry relative="1" as="geometry">
            <Array as="points">
              <mxPoint x="595" y="300" />
              <mxPoint x="1120" y="300" />
              <mxPoint x="1120" y="820" />
            </Array>
          </mxGeometry>
        </mxCell>
        <mxCell id="2" value="Técnicas de investigacion" style="rounded=1;fillColor=#23445D;gradientColor=none;strokeColor=none;fontColor=#FFFFFF;fontStyle=1;fontFamily=Tahoma;fontSize=14" parent="1" vertex="1">
          <mxGeometry x="500" y="190" width="190" height="80" as="geometry" />
        </mxCell>
        <mxCell id="EucxsVxJViZzN3xbU8ij-144" value="" style="edgeStyle=orthogonalEdgeStyle;rounded=0;orthogonalLoop=1;jettySize=auto;html=1;" parent="1" source="4" target="EucxsVxJViZzN3xbU8ij-141" edge="1">
          <mxGeometry relative="1" as="geometry" />
        </mxCell>
        <mxCell id="4" value="Documentacion" style="rounded=1;fillColor=#23445D;gradientColor=none;strokeColor=none;fontColor=#FFFFFF;fontStyle=1;fontFamily=Tahoma;fontSize=14" parent="1" vertex="1">
          <mxGeometry x="571.9999999999998" y="848.88" width="190" height="80" as="geometry" />
        </mxCell>
        <mxCell id="EucxsVxJViZzN3xbU8ij-138" value="" style="edgeStyle=orthogonalEdgeStyle;rounded=0;orthogonalLoop=1;jettySize=auto;html=1;" parent="1" source="10" target="EucxsVxJViZzN3xbU8ij-135" edge="1">
          <mxGeometry relative="1" as="geometry" />
        </mxCell>
        <mxCell id="10" value="Entrevista" style="rounded=1;fillColor=#23445D;gradientColor=none;strokeColor=none;fontColor=#FFFFFF;fontStyle=1;fontFamily=Tahoma;fontSize=14" parent="1" vertex="1">
          <mxGeometry x="562" y="332.75" width="190" height="80" as="geometry" />
        </mxCell>
        <mxCell id="EucxsVxJViZzN3xbU8ij-137" value="" style="edgeStyle=orthogonalEdgeStyle;rounded=0;orthogonalLoop=1;jettySize=auto;html=1;" parent="1" source="12" target="EucxsVxJViZzN3xbU8ij-136" edge="1">
          <mxGeometry relative="1" as="geometry" />
        </mxCell>
        <mxCell id="12" value="Experimentacion" style="rounded=1;fillColor=#23445D;gradientColor=none;strokeColor=none;fontColor=#FFFFFF;fontStyle=1;fontFamily=Tahoma;fontSize=14" parent="1" vertex="1">
          <mxGeometry x="329.9999999999999" y="335.5" width="190" height="80" as="geometry" />
        </mxCell>
        <mxCell id="13" value="Observacion " style="rounded=1;fillColor=#23445D;gradientColor=none;strokeColor=none;fontColor=#FFFFFF;fontStyle=1;fontFamily=Tahoma;fontSize=14" parent="1" vertex="1">
          <mxGeometry x="97" y="332.75" width="190" height="80" as="geometry" />
        </mxCell>
        <mxCell id="EucxsVxJViZzN3xbU8ij-153" value="" style="edgeStyle=orthogonalEdgeStyle;rounded=0;orthogonalLoop=1;jettySize=auto;html=1;entryX=0.5;entryY=0;entryDx=0;entryDy=0;" parent="1" source="14" target="EucxsVxJViZzN3xbU8ij-148" edge="1">
          <mxGeometry relative="1" as="geometry" />
        </mxCell>
        <mxCell id="14" value="es consistente" style="rounded=1;fillColor=#23445D;gradientColor=none;strokeColor=none;fontColor=#FFFFFF;fontStyle=1;fontFamily=Tahoma;fontSize=14" parent="1" vertex="1">
          <mxGeometry x="127" y="465.5" width="130" height="60" as="geometry" />
        </mxCell>
        <mxCell id="59" value="" style="edgeStyle=elbowEdgeStyle;elbow=vertical;strokeWidth=2;rounded=0" parent="1" source="2" target="12" edge="1">
          <mxGeometry x="347" y="225.5" width="100" height="100" as="geometry">
            <mxPoint x="861.9999999999999" y="275.5" as="sourcePoint" />
            <mxPoint x="1466.9999999999998" y="345.5" as="targetPoint" />
          </mxGeometry>
        </mxCell>
        <mxCell id="61" value="" style="edgeStyle=elbowEdgeStyle;elbow=vertical;strokeWidth=2;rounded=0" parent="1" source="2" target="13" edge="1">
          <mxGeometry x="-23" y="135.5" width="100" height="100" as="geometry">
            <mxPoint x="-23" y="235.5" as="sourcePoint" />
            <mxPoint x="77" y="135.5" as="targetPoint" />
          </mxGeometry>
        </mxCell>
        <mxCell id="62" value="" style="edgeStyle=elbowEdgeStyle;elbow=vertical;strokeWidth=2;rounded=0" parent="1" source="13" target="14" edge="1">
          <mxGeometry x="-23" y="135.5" width="100" height="100" as="geometry">
            <mxPoint x="-23" y="235.5" as="sourcePoint" />
            <mxPoint x="77" y="135.5" as="targetPoint" />
          </mxGeometry>
        </mxCell>
        <mxCell id="EucxsVxJViZzN3xbU8ij-139" value="" style="edgeStyle=orthogonalEdgeStyle;rounded=0;orthogonalLoop=1;jettySize=auto;html=1;" parent="1" source="EucxsVxJViZzN3xbU8ij-123" target="EucxsVxJViZzN3xbU8ij-134" edge="1">
          <mxGeometry relative="1" as="geometry" />
        </mxCell>
        <mxCell id="EucxsVxJViZzN3xbU8ij-123" value="Encuesta" style="rounded=1;fillColor=#23445D;gradientColor=none;strokeColor=none;fontColor=#FFFFFF;fontStyle=1;fontFamily=Tahoma;fontSize=14" parent="1" vertex="1">
          <mxGeometry x="798.5" y="332.75" width="190" height="80" as="geometry" />
        </mxCell>
        <mxCell id="EucxsVxJViZzN3xbU8ij-143" value="" style="edgeStyle=orthogonalEdgeStyle;rounded=0;orthogonalLoop=1;jettySize=auto;html=1;" parent="1" source="EucxsVxJViZzN3xbU8ij-124" target="EucxsVxJViZzN3xbU8ij-142" edge="1">
          <mxGeometry relative="1" as="geometry" />
        </mxCell>
        <mxCell id="EucxsVxJViZzN3xbU8ij-124" value="Psicometria" style="rounded=1;fillColor=#23445D;gradientColor=none;strokeColor=none;fontColor=#FFFFFF;fontStyle=1;fontFamily=Tahoma;fontSize=14" parent="1" vertex="1">
          <mxGeometry x="300" y="780" width="190" height="80" as="geometry" />
        </mxCell>
        <mxCell id="EucxsVxJViZzN3xbU8ij-145" value="" style="edgeStyle=orthogonalEdgeStyle;rounded=0;orthogonalLoop=1;jettySize=auto;html=1;" parent="1" source="EucxsVxJViZzN3xbU8ij-125" target="EucxsVxJViZzN3xbU8ij-140" edge="1">
          <mxGeometry relative="1" as="geometry" />
        </mxCell>
        <mxCell id="EucxsVxJViZzN3xbU8ij-125" value="Fichaje" style="rounded=1;fillColor=#23445D;gradientColor=none;strokeColor=none;fontColor=#FFFFFF;fontStyle=1;fontFamily=Tahoma;fontSize=14" parent="1" vertex="1">
          <mxGeometry x="801.9999999999998" y="848.88" width="190" height="80" as="geometry" />
        </mxCell>
        <mxCell id="EucxsVxJViZzN3xbU8ij-180" style="edgeStyle=orthogonalEdgeStyle;rounded=0;orthogonalLoop=1;jettySize=auto;html=1;entryX=0.5;entryY=0;entryDx=0;entryDy=0;" parent="1" source="EucxsVxJViZzN3xbU8ij-134" target="EucxsVxJViZzN3xbU8ij-163" edge="1">
          <mxGeometry relative="1" as="geometry" />
        </mxCell>
        <mxCell id="EucxsVxJViZzN3xbU8ij-134" value="es por escrito" style="rounded=1;fillColor=#23445D;gradientColor=none;strokeColor=none;fontColor=#FFFFFF;fontStyle=1;fontFamily=Tahoma;fontSize=14" parent="1" vertex="1">
          <mxGeometry x="828.5" y="465.5" width="130" height="60" as="geometry" />
        </mxCell>
        <mxCell id="EucxsVxJViZzN3xbU8ij-171" value="" style="edgeStyle=orthogonalEdgeStyle;rounded=0;orthogonalLoop=1;jettySize=auto;html=1;" parent="1" source="EucxsVxJViZzN3xbU8ij-135" target="EucxsVxJViZzN3xbU8ij-162" edge="1">
          <mxGeometry relative="1" as="geometry" />
        </mxCell>
        <mxCell id="EucxsVxJViZzN3xbU8ij-135" value="puede estar o no&#xa; estructurada&#xa; con un cuestionario" style="rounded=1;fillColor=#23445D;gradientColor=none;strokeColor=none;fontColor=#FFFFFF;fontStyle=1;fontFamily=Tahoma;fontSize=14" parent="1" vertex="1">
          <mxGeometry x="592" y="465.5" width="148" height="64.5" as="geometry" />
        </mxCell>
        <mxCell id="EucxsVxJViZzN3xbU8ij-160" value="" style="edgeStyle=orthogonalEdgeStyle;rounded=0;orthogonalLoop=1;jettySize=auto;html=1;" parent="1" source="EucxsVxJViZzN3xbU8ij-136" target="EucxsVxJViZzN3xbU8ij-159" edge="1">
          <mxGeometry relative="1" as="geometry" />
        </mxCell>
        <mxCell id="EucxsVxJViZzN3xbU8ij-136" value="es el mas &#xa;complejo y&#xa;eficaz" style="rounded=1;fillColor=#23445D;gradientColor=none;strokeColor=none;fontColor=#FFFFFF;fontStyle=1;fontFamily=Tahoma;fontSize=14" parent="1" vertex="1">
          <mxGeometry x="360" y="465.5" width="130" height="60" as="geometry" />
        </mxCell>
        <mxCell id="EucxsVxJViZzN3xbU8ij-181" value="" style="edgeStyle=orthogonalEdgeStyle;rounded=0;orthogonalLoop=1;jettySize=auto;html=1;" parent="1" source="EucxsVxJViZzN3xbU8ij-140" target="EucxsVxJViZzN3xbU8ij-165" edge="1">
          <mxGeometry relative="1" as="geometry" />
        </mxCell>
        <mxCell id="EucxsVxJViZzN3xbU8ij-140" value="se usan&#xa; fichas con &#xa;preguntas para &#xa;recolectar la informacion" style="rounded=1;fillColor=#23445D;gradientColor=none;strokeColor=none;fontColor=#FFFFFF;fontStyle=1;fontFamily=Tahoma;fontSize=14" parent="1" vertex="1">
          <mxGeometry x="802" y="981.63" width="190" height="74.5" as="geometry" />
        </mxCell>
        <mxCell id="EucxsVxJViZzN3xbU8ij-147" value="" style="edgeStyle=orthogonalEdgeStyle;rounded=0;orthogonalLoop=1;jettySize=auto;html=1;" parent="1" source="EucxsVxJViZzN3xbU8ij-141" target="EucxsVxJViZzN3xbU8ij-146" edge="1">
          <mxGeometry relative="1" as="geometry" />
        </mxCell>
        <mxCell id="EucxsVxJViZzN3xbU8ij-141" value="Es inexacta" style="rounded=1;fillColor=#23445D;gradientColor=none;strokeColor=none;fontColor=#FFFFFF;fontStyle=1;fontFamily=Tahoma;fontSize=14" parent="1" vertex="1">
          <mxGeometry x="602" y="981.63" width="130" height="60" as="geometry" />
        </mxCell>
        <mxCell id="EucxsVxJViZzN3xbU8ij-183" value="" style="edgeStyle=orthogonalEdgeStyle;rounded=0;orthogonalLoop=1;jettySize=auto;html=1;" parent="1" source="EucxsVxJViZzN3xbU8ij-142" target="EucxsVxJViZzN3xbU8ij-182" edge="1">
          <mxGeometry relative="1" as="geometry" />
        </mxCell>
        <mxCell id="EucxsVxJViZzN3xbU8ij-142" value="mide aspectos &#xa;psicologicos de &#xa;la persona(s)" style="rounded=1;fillColor=#23445D;gradientColor=none;strokeColor=none;fontColor=#FFFFFF;fontStyle=1;fontFamily=Tahoma;fontSize=14" parent="1" vertex="1">
          <mxGeometry x="330" y="900" width="130" height="60" as="geometry" />
        </mxCell>
        <mxCell id="EucxsVxJViZzN3xbU8ij-187" value="" style="edgeStyle=orthogonalEdgeStyle;rounded=0;orthogonalLoop=1;jettySize=auto;html=1;" parent="1" source="EucxsVxJViZzN3xbU8ij-146" target="EucxsVxJViZzN3xbU8ij-186" edge="1">
          <mxGeometry relative="1" as="geometry" />
        </mxCell>
        <mxCell id="EucxsVxJViZzN3xbU8ij-146" value="Es informacion&#xa; ya medida" style="rounded=1;fillColor=#23445D;gradientColor=none;strokeColor=none;fontColor=#FFFFFF;fontStyle=1;fontFamily=Tahoma;fontSize=14" parent="1" vertex="1">
          <mxGeometry x="597" y="1076.63" width="140" height="60" as="geometry" />
        </mxCell>
        <mxCell id="EucxsVxJViZzN3xbU8ij-154" style="edgeStyle=orthogonalEdgeStyle;rounded=0;orthogonalLoop=1;jettySize=auto;html=1;entryX=0.5;entryY=0;entryDx=0;entryDy=0;" parent="1" source="EucxsVxJViZzN3xbU8ij-148" target="EucxsVxJViZzN3xbU8ij-149" edge="1">
          <mxGeometry relative="1" as="geometry" />
        </mxCell>
        <mxCell id="EucxsVxJViZzN3xbU8ij-148" value="debe ser &#xa;cuidadosamente &#xa;planificada" style="rounded=1;fillColor=#23445D;gradientColor=none;strokeColor=none;fontColor=#FFFFFF;fontStyle=1;fontFamily=Tahoma;fontSize=14" parent="1" vertex="1">
          <mxGeometry x="125.5" y="560.5" width="133" height="59.75" as="geometry" />
        </mxCell>
        <mxCell id="EucxsVxJViZzN3xbU8ij-157" value="" style="edgeStyle=orthogonalEdgeStyle;rounded=0;orthogonalLoop=1;jettySize=auto;html=1;" parent="1" source="EucxsVxJViZzN3xbU8ij-149" target="EucxsVxJViZzN3xbU8ij-150" edge="1">
          <mxGeometry relative="1" as="geometry" />
        </mxCell>
        <mxCell id="EucxsVxJViZzN3xbU8ij-149" value="debe ser objetiva" style="rounded=1;fillColor=#23445D;gradientColor=none;strokeColor=none;fontColor=#FFFFFF;fontStyle=1;fontFamily=Tahoma;fontSize=14" parent="1" vertex="1">
          <mxGeometry x="127" y="660" width="130" height="60" as="geometry" />
        </mxCell>
        <mxCell id="EucxsVxJViZzN3xbU8ij-150" value="Debe ser presisa" style="rounded=1;fillColor=#23445D;gradientColor=none;strokeColor=none;fontColor=#FFFFFF;fontStyle=1;fontFamily=Tahoma;fontSize=14" parent="1" vertex="1">
          <mxGeometry x="127" y="760" width="130" height="60" as="geometry" />
        </mxCell>
        <mxCell id="EucxsVxJViZzN3xbU8ij-158" value="un solo &#xa;experimento&#xa;puede tener&#xa;varios fines " style="rounded=1;fillColor=#23445D;gradientColor=none;strokeColor=none;fontColor=#FFFFFF;fontStyle=1;fontFamily=Tahoma;fontSize=14" parent="1" vertex="1">
          <mxGeometry x="360" y="660" width="130" height="70" as="geometry" />
        </mxCell>
        <mxCell id="EucxsVxJViZzN3xbU8ij-161" value="" style="edgeStyle=orthogonalEdgeStyle;rounded=0;orthogonalLoop=1;jettySize=auto;html=1;" parent="1" source="EucxsVxJViZzN3xbU8ij-159" target="EucxsVxJViZzN3xbU8ij-158" edge="1">
          <mxGeometry relative="1" as="geometry" />
        </mxCell>
        <mxCell id="EucxsVxJViZzN3xbU8ij-159" value="esta unido a la &#xa;teoria" style="rounded=1;fillColor=#23445D;gradientColor=none;strokeColor=none;fontColor=#FFFFFF;fontStyle=1;fontFamily=Tahoma;fontSize=14" parent="1" vertex="1">
          <mxGeometry x="360" y="560.5" width="130" height="60" as="geometry" />
        </mxCell>
        <mxCell id="EucxsVxJViZzN3xbU8ij-172" value="" style="edgeStyle=orthogonalEdgeStyle;rounded=0;orthogonalLoop=1;jettySize=auto;html=1;" parent="1" source="EucxsVxJViZzN3xbU8ij-162" target="EucxsVxJViZzN3xbU8ij-164" edge="1">
          <mxGeometry relative="1" as="geometry" />
        </mxCell>
        <mxCell id="EucxsVxJViZzN3xbU8ij-162" value="persigue el objetivo &#xa;de adquirír info&#xa; acerca de las&#xa; variables del estudio" style="rounded=1;fillColor=#23445D;gradientColor=none;strokeColor=none;fontColor=#FFFFFF;fontStyle=1;fontFamily=Tahoma;fontSize=14;arcSize=18;" parent="1" vertex="1">
          <mxGeometry x="579" y="550" width="173" height="69.5" as="geometry" />
        </mxCell>
        <mxCell id="EucxsVxJViZzN3xbU8ij-176" value="" style="edgeStyle=orthogonalEdgeStyle;rounded=0;orthogonalLoop=1;jettySize=auto;html=1;" parent="1" source="EucxsVxJViZzN3xbU8ij-163" target="EucxsVxJViZzN3xbU8ij-166" edge="1">
          <mxGeometry relative="1" as="geometry" />
        </mxCell>
        <mxCell id="EucxsVxJViZzN3xbU8ij-163" value="se usa&#xa; cuestionario " style="rounded=1;fillColor=#23445D;gradientColor=none;strokeColor=none;fontColor=#FFFFFF;fontStyle=1;fontFamily=Tahoma;fontSize=14" parent="1" vertex="1">
          <mxGeometry x="828.5" y="554.75" width="141.5" height="55.25" as="geometry" />
        </mxCell>
        <mxCell id="EucxsVxJViZzN3xbU8ij-173" value="" style="edgeStyle=orthogonalEdgeStyle;rounded=0;orthogonalLoop=1;jettySize=auto;html=1;" parent="1" source="EucxsVxJViZzN3xbU8ij-164" target="EucxsVxJViZzN3xbU8ij-167" edge="1">
          <mxGeometry relative="1" as="geometry" />
        </mxCell>
        <mxCell id="EucxsVxJViZzN3xbU8ij-164" value="el exito de la &#xa;entrevista depende &#xa;del entrevistador" style="rounded=1;fillColor=#23445D;gradientColor=none;strokeColor=none;fontColor=#FFFFFF;fontStyle=1;fontFamily=Tahoma;fontSize=14" parent="1" vertex="1">
          <mxGeometry x="592" y="650" width="140" height="50" as="geometry" />
        </mxCell>
        <mxCell id="EucxsVxJViZzN3xbU8ij-165" value="es un auxiliar,&#xa; porque &#xa;ahorras espacio, &#xa;tiempo y dinero" style="rounded=1;fillColor=#23445D;gradientColor=none;strokeColor=none;fontColor=#FFFFFF;fontStyle=1;fontFamily=Tahoma;fontSize=14" parent="1" vertex="1">
          <mxGeometry x="832" y="1101.13" width="150" height="85" as="geometry" />
        </mxCell>
        <mxCell id="EucxsVxJViZzN3xbU8ij-189" value="" style="edgeStyle=orthogonalEdgeStyle;rounded=0;orthogonalLoop=1;jettySize=auto;html=1;" parent="1" source="EucxsVxJViZzN3xbU8ij-166" target="EucxsVxJViZzN3xbU8ij-188" edge="1">
          <mxGeometry relative="1" as="geometry" />
        </mxCell>
        <mxCell id="EucxsVxJViZzN3xbU8ij-166" value="no requiere &#xa;personal&#xa; calificado" style="rounded=1;fillColor=#23445D;gradientColor=none;strokeColor=none;fontColor=#FFFFFF;fontStyle=1;fontFamily=Tahoma;fontSize=14" parent="1" vertex="1">
          <mxGeometry x="822" y="645" width="130" height="60" as="geometry" />
        </mxCell>
        <mxCell id="EucxsVxJViZzN3xbU8ij-167" value="puede ser aplicada a&#xa; todo tipo de personas" style="rounded=1;fillColor=#23445D;gradientColor=none;strokeColor=none;fontColor=#FFFFFF;fontStyle=1;fontFamily=Tahoma;fontSize=14" parent="1" vertex="1">
          <mxGeometry x="572" y="730" width="170" height="50" as="geometry" />
        </mxCell>
        <mxCell id="EucxsVxJViZzN3xbU8ij-185" value="" style="edgeStyle=orthogonalEdgeStyle;rounded=0;orthogonalLoop=1;jettySize=auto;html=1;" parent="1" source="EucxsVxJViZzN3xbU8ij-182" target="EucxsVxJViZzN3xbU8ij-184" edge="1">
          <mxGeometry relative="1" as="geometry" />
        </mxCell>
        <mxCell id="EucxsVxJViZzN3xbU8ij-182" value="se usa para diagnosticar &#xa;el aprendizaje&#xa;o comportamiento" style="rounded=1;fillColor=#23445D;gradientColor=none;strokeColor=none;fontColor=#FFFFFF;fontStyle=1;fontFamily=Tahoma;fontSize=14" parent="1" vertex="1">
          <mxGeometry x="303.5" y="985.63" width="183" height="70.5" as="geometry" />
        </mxCell>
        <mxCell id="EucxsVxJViZzN3xbU8ij-191" value="" style="edgeStyle=orthogonalEdgeStyle;rounded=0;orthogonalLoop=1;jettySize=auto;html=1;" parent="1" source="EucxsVxJViZzN3xbU8ij-184" target="EucxsVxJViZzN3xbU8ij-190" edge="1">
          <mxGeometry relative="1" as="geometry" />
        </mxCell>
        <mxCell id="EucxsVxJViZzN3xbU8ij-184" value="tambien se&#xa; usa para&#xa; comparar &#xa;al poblacion" style="rounded=1;fillColor=#23445D;gradientColor=none;strokeColor=none;fontColor=#FFFFFF;fontStyle=1;fontFamily=Tahoma;fontSize=14" parent="1" vertex="1">
          <mxGeometry x="330" y="1080" width="140" height="85" as="geometry" />
        </mxCell>
        <mxCell id="EucxsVxJViZzN3xbU8ij-186" value="el investigador &#xa;se guía de esta" style="rounded=1;fillColor=#23445D;gradientColor=none;strokeColor=none;fontColor=#FFFFFF;fontStyle=1;fontFamily=Tahoma;fontSize=14" parent="1" vertex="1">
          <mxGeometry x="592" y="1176.13" width="140" height="60" as="geometry" />
        </mxCell>
        <mxCell id="EucxsVxJViZzN3xbU8ij-188" value="se usa para &#xa;un grupo&#xa; y no para una &#xa;sola persona" style="rounded=1;fillColor=#23445D;gradientColor=none;strokeColor=none;fontColor=#FFFFFF;fontStyle=1;fontFamily=Tahoma;fontSize=14" parent="1" vertex="1">
          <mxGeometry x="818" y="730" width="138" height="80" as="geometry" />
        </mxCell>
        <mxCell id="EucxsVxJViZzN3xbU8ij-190" value="es asincrónica, &#xa;porque se &#xa;puede usar en&#xa; distintos medios" style="rounded=1;fillColor=#23445D;gradientColor=none;strokeColor=none;fontColor=#FFFFFF;fontStyle=1;fontFamily=Tahoma;fontSize=14" parent="1" vertex="1">
          <mxGeometry x="303.5" y="1186.13" width="180" height="85" as="geometry" />
        </mxCell>
      </root>
    </mxGraphModel>
  </diagram>
</mxfile>
